<svg width="18" height="18" viewBox="0 0 18 18" fill="none" xmlns="http://www.w3.org/2000/svg">
<rect width="18" height="18" rx="2" fill="#FE4C4A"/>
<path d="M13.7782 4.2297C13.7081 4.15906 13.6246 4.10299 13.5327 4.06473C13.4408 4.02646 13.3423 4.00677 13.2427 4.00677C13.1432 4.00677 13.0446 4.02646 12.9527 4.06473C12.8608 4.10299 12.7774 4.15906 12.7073 4.2297L8.99964 7.92954L5.29275 4.22185C5.15073 4.0798 4.95811 4 4.75727 4C4.55643 4 4.36382 4.0798 4.2218 4.22185C4.07978 4.36389 4 4.55655 4 4.75743C4 4.95832 4.07978 5.15098 4.2218 5.29302L7.9287 9.00071L4.22394 12.707C4.08193 12.849 4.00214 13.0417 4.00214 13.2426C4.00214 13.4434 4.08193 13.6361 4.22394 13.7782C4.36596 13.9202 4.55857 14 4.75941 14C4.96026 14 5.15287 13.9202 5.29489 13.7782L8.99964 10.0647L12.7073 13.7782C12.8493 13.9202 13.0419 14 13.2427 14C13.4436 14 13.6362 13.9202 13.7782 13.7782C13.9202 13.6361 14 13.4434 14 13.2426C14 13.0417 13.9202 12.849 13.7782 12.707L10.0656 8.99857L13.7782 5.29088C13.9166 5.14896 13.9941 4.95855 13.9941 4.76029C13.9941 4.56203 13.9166 4.37162 13.7782 4.2297Z" fill="white"/>
</svg>
